<svg xmlns="http://www.w3.org/2000/svg" width="21.67" height="26.24" viewBox="0 0 21.67 26.24">
  <path id="Ahrefs" d="M13.45,4.38h3v3h-3Zm0,3.88h3v3h-3Zm0,3.87h3v3h-3Zm-.01,7.74h3v3h-3Zm0,3.87h3v3h-3Zm3.97-11.61h3v3h-3Zm0,3.87h3v3h-3Zm0,3.87h3v3h-3Zm-7.66,0h3v3h-3Zm7.65,3.88h3v3h-3Zm0,3.87h3v3h-3Zm3.97-15.49h3v3h-3Zm0,3.87h3v3h-3ZM6.67,16h3v3h-3Zm6.77,0h3v3h-3Zm7.93,3.88h3v3h-3Zm0,3.87h3v3h-3Zm-.01,3.87h3v3h-3Zm3.98-11.61h3v3h-3Zm-.01,3.87h3v3h-3Zm0,3.87h3v3h-3Z" transform="translate(-6.67 -4.38)" fill="#005e9b"/>
</svg>
