<svg xmlns="http://www.w3.org/2000/svg" width="25.42" height="17.193" viewBox="0 0 25.42 17.193">
  <g id="Campaign_Monitor" data-name="Campaign Monitor" transform="translate(-4.81 -8.927)">
    <path id="Path_93" data-name="Path 93" d="M30,9.33a1,1,0,0,0-1.35-.24L18.51,16.2a1.768,1.768,0,0,1-2,0L6.33,9.09a1,1,0,0,0-1.52.78V25.12a1,1,0,0,0,1,1H29.23a1,1,0,0,0,1-1V9.86A1,1,0,0,0,30,9.33" fill="#0a9dcc"/>
    <path id="Path_94" data-name="Path 94" d="M5.77,26.09H29.23a1,1,0,0,0,1-1V9.86a1,1,0,0,0-1.52-.78L5,25.68a1,1,0,0,0,.79.41" fill="#6ac7dc"/>
  </g>
</svg>
