<svg xmlns="http://www.w3.org/2000/svg" width="24.04" height="25.44" viewBox="0 0 24.04 25.44">
  <g id="Facebook_Insights" data-name="Facebook Insights" transform="translate(-5.48 -6.78)">
    <path id="Path_43" data-name="Path 43" d="M27.81,7.33H7.2A1.18,1.18,0,0,0,6,8.49V25.63a1.18,1.18,0,0,0,1.18,1.18h3.24V31.1a.59.59,0,0,0,1,.38l4-4.66H27.8A1.18,1.18,0,0,0,29,25.64V8.51a1.18,1.18,0,0,0-1.19-1.18Z" fill="#af9fc8"/>
    <path id="Path_44" data-name="Path 44" d="M11,32.22a1.13,1.13,0,0,1-.39-.07,1.11,1.11,0,0,1-.73-1V27.34H7.19a1.71,1.71,0,0,1-1.71-1.71V8.49A1.71,1.71,0,0,1,7.2,6.78H27.81a1.71,1.71,0,0,1,1.71,1.71V25.64a1.71,1.71,0,0,1-1.71,1.71H15.66l-3.79,4.48a1.11,1.11,0,0,1-.87.39ZM7.2,7.84a.65.65,0,0,0-.65.65V25.63a.65.65,0,0,0,.65.65H11V31.1a.06.06,0,0,0,.1,0l4.11-4.85H27.8a.65.65,0,0,0,.65-.65V8.51a.65.65,0,0,0-.65-.65Z" fill="#7b698c"/>
    <path id="Path_45" data-name="Path 45" d="M13.02,16.35,6.54,22.68v1.35l6.48-6.33,6.42,6.43,9.01-9V13.77l-9.01,9.01-6.42-6.43Z" fill="#8c7da8"/>
    <path id="Path_46" data-name="Path 46" d="M13.04,13.37l-6.5,6.34v1.35l6.49-6.34,6.41,6.41,9.02-9V10.78l-9.02,9-6.4-6.41Z" fill="#fff"/>
    <path id="Path_47" data-name="Path 47" d="M13.03,14.72,6.54,21.06v1.62l6.48-6.33,6.42,6.43,9.01-9.01.01-1.64-9.02,9-6.41-6.41Z" fill="#fff"/>
    <path id="Path_48" data-name="Path 48" d="M27.81,7.86H7.2a.65.65,0,0,0-.65.65v.77H28.46V8.51a.65.65,0,0,0-.65-.65Z" fill="#bfb3d0"/>
  </g>
</svg>
