<svg xmlns="http://www.w3.org/2000/svg" width="27.12" height="23.577" viewBox="0 0 27.12 23.577">
  <g id="Facebook_Ads" data-name="Facebook Ads" transform="translate(-3.94 -5.72)">
    <path id="Path_28" data-name="Path 28" d="M14.82,20.32a3.71,3.71,0,0,0,.93,2.14c.8.7-.64,1.45-1.66,1.16S13,20.32,13,20.32Z" fill="#6079ad"/>
    <path id="Path_29" data-name="Path 29" d="M15.13,27.2l-.71-5.5L8.93,23.08l2.35,5.4c.3.85,1.49,1,2.55.62a1.92,1.92,0,0,0,1.3-1.9Z" fill="#d6d3c9"/>
    <path id="Path_30" data-name="Path 30" d="M10.53,17.13a4,4,0,0,0-2,1.31h5.18a2.75,2.75,0,0,0-3.18-1.31Z" fill="#fdb701" opacity="0.5"/>
    <path id="Path_31" data-name="Path 31" d="M14.17,19.72a3.38,3.38,0,0,0-.44-1.29H8.55a2.7,2.7,0,0,0-.49,2.64l.87,2,5.49-1.39Z" fill="#aeaaa1"/>
    <path id="Path_32" data-name="Path 32" d="M14.33,11.65H7.87A3.92,3.92,0,0,0,4,14.92H14.33Z" fill="#667a9f"/>
    <path id="Path_33" data-name="Path 33" d="M14.33,14.92H4a3.93,3.93,0,0,0-.06.64V17a3.92,3.92,0,0,0,.11.91H14.33Z" fill="#405988"/>
    <path id="Path_34" data-name="Path 34" d="M7.87,20.94h6.46v-3H4.06a3.92,3.92,0,0,0,3.81,3Z" fill="#3b527f"/>
    <path id="Path_35" data-name="Path 35" d="M31,10.8V5.72H29.3c-.09,6-15,5.93-15,5.93v3.27S27.57,14.91,31,10.8Z" fill="#dfddd5"/>
    <path id="Path_36" data-name="Path 36" d="M14.33,17.93v3s14.86,0,15,6.21h.38V20.91C25,17.94,14.33,17.93,14.33,17.93Z" fill="#c6c3b8"/>
    <path id="Path_37" data-name="Path 37" d="M29.68,11.94c-4.71,3-15.35,3-15.35,3v3s10.65,0,15.35,3v-9Zm.44,9.27-.1-.07Zm.43.35-.17-.14Zm.18.16c.11.11.22.22.32.34a4.54,4.54,0,0,0-.32-.34Z" fill="#d2cfc4"/>
    <path id="Path_38" data-name="Path 38" d="M30.38,21.41l-.27-.2ZM30,21.14l-.34-.23ZM29.68,5.72v6.22A5.91,5.91,0,0,0,31,10.8V5.72Zm.87,15.84.18.16Z" fill="#f5f2e6"/>
    <path id="Path_39" data-name="Path 39" d="M29.68,11.94v9l.34.23.1.07.27.2.17.14.18.16a4.519,4.519,0,0,1,.32.34V10.8A5.91,5.91,0,0,1,29.68,11.94Z" fill="#f1eddc"/>
    <path id="Path_40" data-name="Path 40" d="M29.68,20.91v6.24H31v-5.1a5.91,5.91,0,0,0-1.32-1.14Z" fill="#e3dfcf"/>
    <path id="Path_41" data-name="Path 41" d="M29.68,20.91h1.37v1.28H29.68Z" fill="#e3dfcf"/>
    <path id="Path_42" data-name="Path 42" d="M29.68,5.72h1.37v6.22H29.68Z" fill="#f5f2e6"/>
  </g>
</svg>
