<svg xmlns="http://www.w3.org/2000/svg" width="23.76" height="23.56" viewBox="0 0 23.76 23.56">
  <g id="Facebook_Business_Manager" data-name="Facebook Business Manager" transform="translate(-5.62 -5.72)">
    <rect id="Rectangle_31" data-name="Rectangle 31" width="23.76" height="23.56" rx="2.27" transform="translate(5.62 5.72)" fill="#4b5460"/>
    <path id="Path_81" data-name="Path 81" d="M24.53,14h-2.9V11.29a.84.84,0,0,0-.84-.84H14.41a.84.84,0,0,0-.84.84V14h-3.3a1,1,0,0,0-1,1v8.62a1,1,0,0,0,1,1H24.52a1,1,0,0,0,1-1V15a1,1,0,0,0-.99-1ZM15,11.86h5.24V14H15ZM10.91,23l5.58-4.83,2.21,2,5.24-4.42V23Z" fill="#fff"/>
  </g>
</svg>
