<svg xmlns="http://www.w3.org/2000/svg" width="26.12" height="23.27" viewBox="0 0 26.12 23.27">
  <g id="Google_Search_Console" data-name="Google Search Console" transform="translate(-4.44 -5.87)">
    <path id="Path_54" data-name="Path 54" d="M4.44,17.03H30.56V29.14H4.44Z" fill="#e6e7e8"/>
    <path id="Path_55" data-name="Path 55" d="M30.56,17.02H4.44V13.35l3.8-3.69H26.88l3.68,3.69Z" fill="#d2d3d4"/>
    <path id="Path_56" data-name="Path 56" d="M11.8,9.66h1.9V5.87L11.8,7.76Zm9.5,0h1.9V7.76L21.3,5.87Z" fill="#7c7c7c"/>
    <path id="Path_57" data-name="Path 57" d="M13.7,5.87h7.6v1.9H13.7Z" fill="#5a5a5a"/>
    <rect id="Rectangle_26" data-name="Rectangle 26" width="20.07" height="7.48" rx="0.9" transform="translate(7.47 13.34)" fill="#5778ff"/>
    <path id="Path_58" data-name="Path 58" d="M7.47,17.03H27.54V29.14H7.47Z" fill="#fff"/>
    <circle id="Ellipse_2" data-name="Ellipse 2" cx="0.81" cy="0.81" r="0.81" transform="translate(8.52 14.32)" fill="#fff"/>
    <circle id="Ellipse_3" data-name="Ellipse 3" cx="0.81" cy="0.81" r="0.81" transform="translate(10.97 14.32)" fill="#fff"/>
    <path id="Path_59" data-name="Path 59" d="M8.83,27.47h8.9v1.66H8.83Zm0-9.02h6.65v7.6H8.83Z" fill="#d2d3d4"/>
    <path id="Path_60" data-name="Path 60" d="M25.34,19.64l-2.62,5.34.95,4.16h3.87V22.31Z" fill="#bdbdbd"/>
    <path id="Path_61" data-name="Path 61" d="M19.76,25.22h3.92v3.92H19.76Z" fill="#4f4f4f"/>
    <path id="Path_62" data-name="Path 62" d="M23.67,23.79H19.76V18.33l3.91,4.04v1.42Z" fill="#bdbdbd"/>
    <path id="Path_63" data-name="Path 63" d="M23.67,18.29v4.08l-2,1.19-2-1.19v-4a4.39,4.39,0,1,0,3.92-.06Z" fill="#4f4f4f"/>
  </g>
</svg>
