<svg xmlns="http://www.w3.org/2000/svg" xmlns:xlink="http://www.w3.org/1999/xlink" width="27.481" height="24" viewBox="0 0 27.481 24">
  <defs>
    <linearGradient id="linear-gradient" x1="0.001" y1="0.227" x2="1.002" y2="0.227" gradientUnits="objectBoundingBox">
      <stop offset="0.03" stop-color="#4079d8"/>
      <stop offset="1" stop-color="#4989f5"/>
    </linearGradient>
  </defs>
  <g id="Google_My_Business" data-name="Google My Business" transform="translate(-10 -13.8)">
    <path id="Path_64" data-name="Path 64" d="M13.962,26.9H36.084a.967.967,0,0,1,.962.962V43.938a.967.967,0,0,1-.962.962H13.962A.967.967,0,0,1,13,43.938V27.862A.967.967,0,0,1,13.962,26.9Z" transform="translate(-1.626 -7.1)" fill="#4989f5"/>
    <path id="Path_65" data-name="Path 65" d="M35.809,26.6H14.191C13.5,26.6,13,31.776,13,32.463L24.817,44.737H35.763A1.232,1.232,0,0,0,37,43.5V27.837A1.166,1.166,0,0,0,35.809,26.6Z" transform="translate(-1.626 -6.937)" fill="url(#linear-gradient)"/>
    <path id="Path_66" data-name="Path 66" d="M25,22.823h6.87V13.8H26.008Z" transform="translate(-8.13)" fill="#3c4ba6"/>
    <path id="Path_67" data-name="Path 67" d="M46.87,22.823H40V13.8h5.863Z" transform="translate(-16.26)" fill="#7babf7"/>
    <path id="Path_68" data-name="Path 68" d="M65.5,17.5Z" transform="translate(-30.08 -2.005)" fill="#7babf7"/>
    <path id="Path_69" data-name="Path 69" d="M58.563,15.54h0A2.206,2.206,0,0,0,56.41,13.8H52.7l1.053,9.023h6.87Z" transform="translate(-23.143)" fill="#3f51b5"/>
    <path id="Path_70" data-name="Path 70" d="M14.5,17.5Z" transform="translate(-2.439 -2.005)" fill="#7babf7"/>
    <path id="Path_71" data-name="Path 71" d="M12.061,15.54h0a2.206,2.206,0,0,1,2.153-1.74h3.71L16.87,22.823H10Z" fill="#7babf7"/>
    <path id="Path_72" data-name="Path 72" d="M16.87,33.5a3.435,3.435,0,0,1-6.87,0Z" transform="translate(0 -10.677)" fill="#709be0"/>
    <path id="Path_73" data-name="Path 73" d="M31.87,33.5a3.435,3.435,0,0,1-6.87,0Z" transform="translate(-8.13 -10.677)" fill="#3c4ba6"/>
    <path id="Path_74" data-name="Path 74" d="M46.87,33.5a3.435,3.435,0,0,1-6.87,0Z" transform="translate(-16.26 -10.677)" fill="#709be0"/>
    <path id="Path_75" data-name="Path 75" d="M61.87,33.5a3.435,3.435,0,0,1-6.87,0Z" transform="translate(-24.389 -10.677)" fill="#3c4ba6"/>
    <path id="Path_76" data-name="Path 76" d="M53.3,49.443c0-.183-.046-.321-.046-.5H49.5v1.6h2.153a1.788,1.788,0,0,1-.779,1.191h0a2.007,2.007,0,0,1-.87.321,3.384,3.384,0,0,1-.962,0,1.862,1.862,0,0,1-.87-.366,2.523,2.523,0,0,1-.87-1.1.16.16,0,0,0-.046-.092h0a2.275,2.275,0,0,1,0-1.557,2.127,2.127,0,0,1,.6-.916,2.282,2.282,0,0,1,2.382-.6,2.4,2.4,0,0,1,.87.5l.733-.733a2.963,2.963,0,0,0,.366-.412h0a3.713,3.713,0,0,0-1.282-.779,4.2,4.2,0,0,0-2.7-.046c-.046,0-.046,0-.092.046a4.038,4.038,0,0,0-2.153,1.924,6.537,6.537,0,0,0-.366,1.008,3.962,3.962,0,0,0,2.885,4.626,3.763,3.763,0,0,0,2.015,0,3.4,3.4,0,0,0,1.649-.87,3.669,3.669,0,0,0,1.008-1.649A4.662,4.662,0,0,0,53.3,49.443Z" transform="translate(-19.255 -17.323)" fill="#fff"/>
  </g>
</svg>
