<svg xmlns="http://www.w3.org/2000/svg" xmlns:xlink="http://www.w3.org/1999/xlink" width="23" height="23" viewBox="0 0 23 23">
  <defs>
    <linearGradient id="linear-gradient" x1="0.084" y1="0.916" x2="0.916" y2="0.084" gradientUnits="objectBoundingBox">
      <stop offset="0" stop-color="#ffd600"/>
      <stop offset="0.5" stop-color="#ff0100"/>
      <stop offset="1" stop-color="#d800b9"/>
    </linearGradient>
    <linearGradient id="linear-gradient-2" x1="0.146" y1="0.854" x2="0.854" y2="0.146" gradientUnits="objectBoundingBox">
      <stop offset="0" stop-color="#ff6400"/>
      <stop offset="0.5" stop-color="#ff0100"/>
      <stop offset="1" stop-color="#fd0056"/>
    </linearGradient>
    <linearGradient id="linear-gradient-3" x1="0.146" y1="0.854" x2="0.854" y2="0.146" gradientUnits="objectBoundingBox">
      <stop offset="0" stop-color="#f30072"/>
      <stop offset="1" stop-color="#e50097"/>
    </linearGradient>
  </defs>
  <g id="instagram_ads" data-name="instagram ads" transform="translate(0 0)">
    <path id="Path_25" data-name="Path 25" d="M22.931,6.759A8.443,8.443,0,0,0,22.4,3.967,5.636,5.636,0,0,0,21.07,1.93,5.638,5.638,0,0,0,19.033.6,8.441,8.441,0,0,0,16.241.069C15.015.013,14.623,0,11.5,0S7.985.013,6.759.069A8.444,8.444,0,0,0,3.967.6,5.636,5.636,0,0,0,1.93,1.93,5.637,5.637,0,0,0,.6,3.967,8.442,8.442,0,0,0,.069,6.758C.013,7.985,0,8.377,0,11.5s.013,3.515.069,4.742A8.441,8.441,0,0,0,.6,19.033,5.636,5.636,0,0,0,1.93,21.07,5.635,5.635,0,0,0,3.967,22.4a8.438,8.438,0,0,0,2.791.535C7.985,22.987,8.377,23,11.5,23s3.515-.013,4.741-.069a8.439,8.439,0,0,0,2.792-.535A5.879,5.879,0,0,0,22.4,19.033a8.44,8.44,0,0,0,.535-2.792c.056-1.227.069-1.618.069-4.741s-.013-3.515-.069-4.741Zm-2.07,9.389a6.363,6.363,0,0,1-.4,2.135,3.808,3.808,0,0,1-2.183,2.183,6.363,6.363,0,0,1-2.135.4c-1.212.055-1.576.067-4.647.067s-3.435-.012-4.647-.067a6.365,6.365,0,0,1-2.135-.4A3.564,3.564,0,0,1,3.4,19.6a3.562,3.562,0,0,1-.86-1.322,6.363,6.363,0,0,1-.4-2.135c-.055-1.213-.067-1.576-.067-4.647s.012-3.434.067-4.647a6.367,6.367,0,0,1,.4-2.135A3.565,3.565,0,0,1,3.4,3.4a3.561,3.561,0,0,1,1.322-.86,6.362,6.362,0,0,1,2.135-.4c1.213-.055,1.576-.067,4.647-.067h0c3.071,0,3.434.012,4.647.067a6.364,6.364,0,0,1,2.135.4A3.566,3.566,0,0,1,19.6,3.4a3.561,3.561,0,0,1,.86,1.322,6.357,6.357,0,0,1,.4,2.135c.055,1.213.067,1.576.067,4.647s-.012,3.434-.067,4.647Zm0,0" fill="url(#linear-gradient)"/>
    <path id="Path_26" data-name="Path 26" d="M130.444,124.539a5.905,5.905,0,1,0,5.906,5.906A5.906,5.906,0,0,0,130.444,124.539Zm0,9.739a3.833,3.833,0,1,1,3.833-3.833A3.833,3.833,0,0,1,130.444,134.278Zm0,0" transform="translate(-118.945 -118.945)" fill="url(#linear-gradient-2)"/>
    <path id="Path_27" data-name="Path 27" d="M364.69,90.005a1.38,1.38,0,1,1-1.38-1.38A1.38,1.38,0,0,1,364.69,90.005Zm0,0" transform="translate(-345.671 -84.644)" fill="url(#linear-gradient-3)"/>
  </g>
</svg>
