<svg xmlns="http://www.w3.org/2000/svg" width="28.5" height="24" viewBox="0 0 28.5 24">
  <g id="LinkedIn_Pages" data-name="LinkedIn Pages" transform="translate(-5.4 -5.5)">
    <path id="Path_49" data-name="Path 49" d="M27.7,5.5H7.2A1.774,1.774,0,0,0,5.4,7.2V27.8a1.71,1.71,0,0,0,1.8,1.7H27.7a1.774,1.774,0,0,0,1.8-1.7V7.2A1.71,1.71,0,0,0,27.7,5.5Z" fill="#007bb5"/>
    <path id="Path_50" data-name="Path 50" d="M9,14.5h3.6V26H9Zm1.8-5.7a2.1,2.1,0,1,1-2.1,2.1,2.18,2.18,0,0,1,2.1-2.1m4,5.7h3.4v1.6a3.773,3.773,0,0,1,3.4-1.9c3.6,0,4.3,2.4,4.3,5.5V26H22.3V20.4c0-1.3,0-3-1.9-3s-2.1,1.4-2.1,2.9V26H14.7V14.5Z" fill="#fff"/>
    <path id="Path_51" data-name="Path 51" d="M30.6,24.5h.5V26h.3V24.5h.4v-.3H30.6Zm2.9-.3L33,25.5l-.5-1.3h-.4V26h.3V24.6l.5,1.4h.2l.5-1.4V26h.3V24.2Z" fill="#7c7c7c"/>
  </g>
</svg>
