<svg xmlns="http://www.w3.org/2000/svg" width="24.729" height="26.24" viewBox="0 0 24.729 26.24">
  <g id="mailchimp_icon" transform="translate(-11.991 -10.252)">
    <path id="Path_79" data-name="Path 79" d="M34.926,35.844a2.067,2.067,0,0,1,.547,0A1.9,1.9,0,0,0,35.5,34.8c-.132-.627-.309-1-.676-.945s-.375.512-.247,1.135A2.124,2.124,0,0,0,34.926,35.844Zm-3.144.495c.26.115.419.19.486.124s.026-.119-.035-.221a1.545,1.545,0,0,0-.662-.561,1.85,1.85,0,0,0-1.793.216c-.172.128-.34.3-.313.415,0,.035.031.062.093.066a11.991,11.991,0,0,1,1.227-.256,2.119,2.119,0,0,1,1,.216Zm-.512.3a1.214,1.214,0,0,0-.649.269.4.4,0,0,0-.163.256.084.084,0,0,0,0,.062.075.075,0,0,0,.057,0,1.077,1.077,0,0,0,.247-.066,2.141,2.141,0,0,1,1.095-.115c.172,0,.252.031.291-.031a.1.1,0,0,0,0-.106A.989.989,0,0,0,31.27,36.639Zm2.6,1.1a.358.358,0,1,0,.3-.609.442.442,0,0,0-.57.1C33.517,37.394,33.636,37.623,33.87,37.738Zm1.484-1.3a.416.416,0,0,0-.349.442c0,.238.146.468.331.472s.344-.2.349-.442S35.539,36.444,35.354,36.44Zm-12.6,4.64c-.044-.062-.124-.044-.194-.026a.741.741,0,0,1-.177.026.389.389,0,0,1-.322-.163.6.6,0,0,1,0-.552c0-.031.031-.062.044-.1a1.62,1.62,0,0,0,.124-1.444,1.28,1.28,0,0,0-.98-.711,1.254,1.254,0,0,0-1.073.389,1.554,1.554,0,0,0-.4,1.325c.031.079.075.1.11.106a.3.3,0,0,0,.238-.216.3.3,0,0,0,0-.057,1.894,1.894,0,0,1,.172-.406.729.729,0,0,1,.472-.322.755.755,0,0,1,.574.106.737.737,0,0,1,.278.883,2.115,2.115,0,0,0-.146.786.782.782,0,0,0,.7.808.6.6,0,0,0,.565-.283.115.115,0,0,0,.018-.15Z" transform="translate(-4.334 -13.177)"/>
    <path id="Path_80" data-name="Path 80" d="M35.753,26.879a6.563,6.563,0,0,0-.19-.64,5.359,5.359,0,0,0-.208-.561,2,2,0,0,0,.362-1.475,1.872,1.872,0,0,0-.539-1.055,4.49,4.49,0,0,0-1.916-.949l-.49-.137s-.026-1.148-.026-1.634a5.616,5.616,0,0,0-.234-1.457,3.832,3.832,0,0,0-1-1.766,6.066,6.066,0,0,0,1.974-3.841c0-2.292-2.817-2.985-6.283-1.55l-.733.313L25.121,10.8C21.17,7.355,8.811,21.091,12.759,24.429l.883.729a4.252,4.252,0,0,0-.243,1.96,3.877,3.877,0,0,0,1.325,2.477,4.044,4.044,0,0,0,2.618,1.055,9.992,9.992,0,0,0,9.17,5.837c4.415.132,8.124-1.938,9.678-5.665a7.8,7.8,0,0,0,.53-2.464c0-1.046-.592-1.479-.967-1.479Zm-18.076,2.79a2.115,2.115,0,0,1-.411.026,3.188,3.188,0,0,1-2.918-2.649,2.66,2.66,0,0,1,2.062-3.086,2.521,2.521,0,0,1,.6-.044,2.547,2.547,0,0,1,2.243,2.4c.247,1.541-.132,3.108-1.576,3.356ZM16.185,23.02a3.4,3.4,0,0,0-2.146,1.369,6.044,6.044,0,0,1-.91-.883c-.764-1.444.83-4.265,1.956-5.859,2.755-3.934,7.064-6.91,9.069-6.367a7.949,7.949,0,0,1,1.4,1.325,28.258,28.258,0,0,0-3.85,2.649A17.471,17.471,0,0,0,16.185,23.02Zm14.01,6.058A.079.079,0,0,0,30.239,29a.071.071,0,0,0-.079-.066,9.343,9.343,0,0,1-4.066-.415c.216-.7.786-.442,1.651-.375a12.089,12.089,0,0,0,3.974-.442,9.087,9.087,0,0,0,2.98-1.484,6.018,6.018,0,0,1,.442,1.422.68.68,0,0,1,.442.079c.185.115.327.358.23.976A5.4,5.4,0,0,1,34.3,31.674a6.314,6.314,0,0,1-1.823,1.36,7.324,7.324,0,0,1-1.2.508c-3.13,1.024-6.336-.1-7.369-2.517a4.58,4.58,0,0,1-.208-.574,5.007,5.007,0,0,1,1.1-4.689.442.442,0,0,0,.146-.283.5.5,0,0,0-.115-.265c-.406-.592-1.823-1.6-1.536-3.559a2.649,2.649,0,0,1,2.574-2.336h.291c.495.031.927.093,1.325.11a2.676,2.676,0,0,0,2.027-.676,1.554,1.554,0,0,1,.777-.442.812.812,0,0,1,.3-.031.98.98,0,0,1,.5.159c.583.389.667,1.325.7,2.018,0,.393.062,1.325.079,1.616.035.623.2.711.534.821.185.062.358.106.614.181a3.453,3.453,0,0,1,1.532.751.963.963,0,0,1,.278.543c.093.662-.517,1.484-2.124,2.208a10.786,10.786,0,0,1-5.36.883l-.517-.062c-1.179-.159-1.85,1.364-1.144,2.406a3.755,3.755,0,0,0,2.941,1.086,7.737,7.737,0,0,0,5.846-2.265.883.883,0,0,0,.053-.075c.04-.062,0-.1-.044-.062a10.148,10.148,0,0,1-6.777,1.718,4.08,4.08,0,0,1-.72-.2,1.325,1.325,0,0,1-.932-.976A6.153,6.153,0,0,0,30.194,29.078ZM26.154,28.6ZM21.267,17.647A11.639,11.639,0,0,1,24.534,15a.04.04,0,0,1,.053.057,3.272,3.272,0,0,0-.3.742.044.044,0,0,0,.066.044,6.38,6.38,0,0,1,2.865-1.011.044.044,0,0,1,.031.079,2.442,2.442,0,0,0-.442.442.044.044,0,0,0,.035.071,5.616,5.616,0,0,1,2.4.627c.044.026,0,.11-.04.1a9.744,9.744,0,0,0-4.34,0,10.045,10.045,0,0,0-3.532,1.559c-.035.022-.088-.035-.062-.062Z" transform="translate(0 0)"/>
  </g>
</svg>
