<svg xmlns="http://www.w3.org/2000/svg" width="34.62" height="10.713" viewBox="0 0 34.62 10.713">
  <path id="Moz" d="M34.82,13.59H23.68V14.7a6.21,6.21,0,0,0-5.13-2.54,6.13,6.13,0,0,0-5.4,3V13.58H9.74l-3,4.23L3.06,13.58H.2V21.4H2.9V17.63l3.57,4.08h.66l3.29-4.08V21.4h2.69V19.87a6.13,6.13,0,0,0,5.4,3c3.33,0,6-2.39,6-5.34a4.78,4.78,0,0,0-.16-1.19H28l-5.08,5.1H34.25V18.85H29.72ZM18.55,19.84a2.51,2.51,0,0,1-2.66-2.35,2.51,2.51,0,0,1,2.66-2.35,2.51,2.51,0,0,1,2.66,2.35A2.51,2.51,0,0,1,18.55,19.84Z" transform="translate(-0.2 -12.159)" fill="#00aae4"/>
</svg>
