<svg xmlns="http://www.w3.org/2000/svg" width="34.011" height="8.734" viewBox="0 0 34.011 8.734">
  <g id="SEMrush" transform="translate(-0.5 -13.104)">
    <path id="Path_77" data-name="Path 77" d="M33.2,14.4a4.912,4.912,0,0,0-4.5-1.2,31.265,31.265,0,0,1-4.3.6,6.652,6.652,0,0,1-2.2-.4,2.586,2.586,0,0,0,1.4,1.1c.5.2,1.3.5,1,1-.4.6-1,.1-1.1,0a12.216,12.216,0,0,0-1.8-1.3,7.766,7.766,0,0,0-4.1-.5,5.616,5.616,0,0,1,1.8.8,6.958,6.958,0,0,0-3.9.3,28.009,28.009,0,0,1,5.2.6c.4.2.2.3-.2.4a10.757,10.757,0,0,1-4,0c-1.7-.5-3.1-1.9-5.4-1.5,2.1.4,3.2,2.4,5.5,2.9a6.313,6.313,0,0,0,4.3-.6c.5-.1,1,0,1.1.4s-.3.8-1,.9a13.892,13.892,0,0,1-1.5.2,10.38,10.38,0,0,1-4.1-.3c-2.1-.6-3.6-2-4.3-2.3A6.119,6.119,0,0,0,9,14.9a4.567,4.567,0,0,1,1.6,1.3A7.977,7.977,0,0,0,6.1,16,30.6,30.6,0,0,0,.5,17.7a8.129,8.129,0,0,0,3.5,0,11.665,11.665,0,0,1,6.2.9c3.6,1.3,4.9.1,5.1.5.2.3-1,.8-1.3.8a7.863,7.863,0,0,1-4-.4,4.984,4.984,0,0,0,3.8,1.2,14.63,14.63,0,0,0,4.8-.9,16.968,16.968,0,0,1,3.1-1.1c.3-.1,1.5-.4,1.7-.1.1.2-.1.3-.4.5a6.9,6.9,0,0,0-1,.4,14.632,14.632,0,0,0-2.8,1.3,34.039,34.039,0,0,1,4.2-.3,13.234,13.234,0,0,1,5.1,1,4.314,4.314,0,0,0,4.4-.6,3.921,3.921,0,0,0,1.6-3.3,4.626,4.626,0,0,0-1.3-3.2Zm-3,6.7a3.5,3.5,0,1,1,3.5-3.5A3.417,3.417,0,0,1,30.2,21.1Z" fill="#b6502d"/>
    <path id="Path_78" data-name="Path 78" d="M30.2,14.7A2.8,2.8,0,1,0,33,17.5,2.8,2.8,0,0,0,30.2,14.7Zm1.3,4.7A2.389,2.389,0,0,0,32,18a2.354,2.354,0,0,0-1.9-2.3c.1-.1.2-.3.3-.4a2.276,2.276,0,0,1,1.9,2.3A1.927,1.927,0,0,1,31.5,19.4Z" fill="#b6502d"/>
  </g>
</svg>
