<svg xmlns="http://www.w3.org/2000/svg" width="25" height="20.36" viewBox="0 0 25 20.36">
  <path id="twitter" d="M30,9.72a10.27,10.27,0,0,1-3,.81,5.16,5.16,0,0,0,2.26-2.85,10.31,10.31,0,0,1-3.27,1.25,5.15,5.15,0,0,0-8.77,4.7A14.61,14.61,0,0,1,6.7,8.25a5.15,5.15,0,0,0,1.59,6.87A5.11,5.11,0,0,1,6,14.47v.07a5.15,5.15,0,0,0,4.13,5,5.17,5.17,0,0,1-2.32.09,5.15,5.15,0,0,0,4.81,3.58A10.39,10.39,0,0,1,5,25.38,14.64,14.64,0,0,0,27.49,13v-.67A10.44,10.44,0,0,0,30,9.72Z" transform="translate(-5 -7.303)" fill="#55aaec"/>
</svg>
