<svg xmlns="http://www.w3.org/2000/svg" width="25.54" height="19.46" viewBox="0 0 25.54 19.46">
  <g id="youtube" transform="translate(-4.73 -7.8)">
    <path id="Path_52" data-name="Path 52" d="M30,12a6.49,6.49,0,0,0-1-2.74,3.39,3.39,0,0,0-2.56-1.15c-3.58-.26-9-.31-9-.31s-5.39,0-9,.31A3.57,3.57,0,0,0,6,9.24,5.9,5.9,0,0,0,5,12a44.179,44.179,0,0,0-.27,4.51v2.08A42.761,42.761,0,0,0,5,23a6.49,6.49,0,0,0,1,2.74A4.24,4.24,0,0,0,8.8,27c2,.22,8.7.26,8.7.26s5.39,0,9-.31A3.57,3.57,0,0,0,29,25.76,6.49,6.49,0,0,0,30,23a43.9,43.9,0,0,0,.27-4.46V16.48A44.182,44.182,0,0,0,30,12" fill="#d6362a"/>
    <path id="Path_53" data-name="Path 53" d="M14.41,13.04v9.58l8.39-4.68-8.39-4.9Z" fill="#fff"/>
  </g>
</svg>
